<?xml version="1.0" standalone="no"?>
<!DOCTYPE svg PUBLIC "-//W3C//DTD SVG 20010904//EN"
 "http://www.w3.org/TR/2001/REC-SVG-20010904/DTD/svg10.dtd">
<svg version="1.0" xmlns="http://www.w3.org/2000/svg"
 width="384.000000pt" height="354.000000pt" viewBox="0 0 384.000000 354.000000"
 preserveAspectRatio="xMidYMid meet">

<g transform="translate(0.000000,354.000000) scale(0.100000,-0.100000)"
fill="#000000" stroke="none">
<path d="M547 3335 c-32 -8 -66 -19 -76 -25 -46 -24 -68 -282 -36 -420 31
-131 85 -249 172 -373 39 -56 52 -83 48 -98 -4 -11 -35 -68 -69 -127 -35 -59
-69 -119 -77 -133 -8 -15 -46 -80 -85 -145 -40 -66 -106 -181 -149 -257 l-77
-138 51 -58 c53 -61 60 -76 39 -84 -13 -6 7 -27 133 -140 56 -51 61 -58 37
-54 -16 2 -28 1 -28 -3 0 -4 41 -39 92 -79 105 -81 112 -83 273 -56 154 26
364 45 503 45 122 0 132 1 132 18 0 17 -13 20 -137 25 -75 4 -175 8 -222 9
l-86 1 85 8 c47 4 149 7 228 8 119 1 142 3 142 16 0 9 -9 15 -25 15 -13 0 -82
10 -152 21 -101 17 -172 21 -338 22 -158 0 -200 3 -170 10 22 5 126 10 230 10
173 1 317 -14 456 -45 6 -2 15 7 20 20 7 19 5 24 -17 32 -66 25 -418 104 -679
152 -159 29 -280 54 -268 56 29 4 362 -42 497 -69 130 -26 233 -52 375 -95
115 -34 130 -34 131 2 0 6 -46 38 -102 70 -208 119 -327 172 -547 244 l-218
72 -134 -50 c-74 -27 -145 -53 -159 -57 -23 -7 -24 -7 -8 16 8 13 49 80 90
149 41 69 101 165 132 213 32 48 59 94 60 102 1 8 11 25 22 37 12 13 64 80
117 149 65 85 90 125 77 122 -11 -3 -20 -1 -20 4 0 12 110 118 213 203 48 39
87 76 87 81 0 14 -84 11 -121 -5 -105 -42 -115 -21 -12 25 74 33 99 35 150 14
20 -8 38 -13 40 -11 10 10 -76 66 -140 92 -40 15 -76 31 -81 35 -15 13 65 -2
117 -22 61 -24 60 -24 43 9 -24 45 -118 129 -165 148 -25 10 -40 19 -33 22 6
2 20 -2 32 -8 40 -21 1 24 -56 66 -71 51 -152 84 -228 91 -53 4 -65 2 -90 -18
-16 -12 -35 -37 -42 -55 -29 -69 -11 -289 31 -391 8 -20 14 -38 11 -40 -7 -7
-46 95 -62 164 -20 81 -23 254 -6 304 7 20 26 49 42 64 28 27 37 29 124 33
104 5 167 -6 265 -45 151 -60 277 -154 417 -311 49 -55 92 -101 97 -101 4 -1
7 6 7 15 0 9 9 18 20 21 11 3 20 7 20 10 0 9 -69 111 -79 117 -25 16 -6 24 79
36 96 13 161 5 224 -27 32 -16 31 -12 -10 44 -13 17 -24 35 -24 38 0 13 114
-6 189 -31 l73 -25 62 25 c34 14 93 28 131 32 l70 7 -33 -37 c-17 -20 -32 -41
-32 -46 0 -5 21 -3 48 5 73 23 252 16 252 -9 0 -6 -16 -36 -35 -68 -32 -51
-34 -60 -23 -80 7 -13 14 -25 15 -26 5 -10 37 21 108 103 128 148 219 220 358
285 120 56 194 73 304 68 112 -5 139 -20 166 -94 26 -74 18 -251 -17 -361 -36
-110 -47 -113 -19 -5 24 97 30 250 12 316 -16 58 -49 86 -102 86 -89 0 -194
-46 -295 -128 -23 -19 -41 -37 -38 -39 2 -2 21 3 41 11 60 26 55 18 -15 -19
-68 -37 -155 -115 -163 -146 -6 -22 -8 -22 68 -4 85 21 111 17 41 -5 -58 -18
-166 -84 -166 -101 0 -5 12 -4 26 1 43 17 121 12 169 -11 73 -34 73 -51 0 -24
-45 16 -113 19 -133 6 -10 -6 10 -27 71 -74 99 -78 227 -199 227 -216 0 -8
-10 -6 -31 5 -38 19 -37 18 58 -104 40 -51 88 -116 105 -143 18 -27 44 -53 58
-58 17 -6 19 -10 8 -10 -10 -1 -18 -3 -18 -6 0 -3 37 -65 83 -138 99 -157 197
-321 197 -330 0 -7 -48 9 -170 58 -48 19 -103 35 -122 35 -35 0 -332 -96 -448
-145 -155 -65 -420 -210 -420 -230 0 -6 6 -20 14 -30 13 -18 15 -18 77 7 127
53 492 137 726 169 240 31 242 18 3 -24 -357 -62 -758 -160 -776 -189 -4 -5
-1 -15 5 -21 8 -8 50 -4 158 14 119 19 180 24 313 23 91 -1 192 -6 225 -12 50
-8 27 -10 -145 -10 -203 -1 -465 -28 -512 -53 -30 -16 -21 -31 14 -24 17 4
124 4 237 -1 l206 -9 -230 -10 c-218 -9 -230 -11 -233 -30 -3 -19 2 -20 81
-17 104 5 361 -13 487 -33 52 -8 124 -18 160 -21 61 -6 68 -4 114 27 68 46
158 132 129 124 -13 -4 -23 -3 -23 0 0 4 42 46 93 96 68 65 89 91 79 97 -10 7
-1 23 38 68 28 32 49 63 48 68 -10 36 -275 507 -294 522 -7 6 -11 14 -8 17 4
3 -30 67 -75 142 -50 82 -79 140 -75 147 5 7 28 40 52 73 54 73 145 258 167
340 34 128 29 350 -11 426 -39 77 -286 93 -471 31 -117 -40 -197 -80 -295
-148 -43 -30 -84 -54 -92 -54 -8 0 -41 7 -73 15 -32 9 -131 25 -220 37 l-163
22 -68 -23 -68 -22 -72 20 c-67 18 -78 19 -209 5 -153 -16 -168 -18 -266 -41
l-69 -16 -56 40 c-96 67 -203 121 -318 159 -95 32 -123 37 -224 40 -78 3 -133
-1 -173 -11z m2714 -638 c-10 -9 -11 -8 -5 6 3 10 9 15 12 12 3 -3 0 -11 -7
-18z m-308 -1464 c-7 -2 -21 -2 -30 0 -10 3 -4 5 12 5 17 0 24 -2 18 -5z"/>
<path d="M1892 2349 c-32 -284 -41 -414 -45 -700 -2 -141 -8 -263 -13 -272 -5
-9 -30 -30 -56 -46 -69 -44 -102 -93 -101 -151 1 -78 35 -128 113 -167 36 -17
65 -37 65 -45 0 -18 -79 -22 -193 -9 -107 13 -138 26 -205 88 -53 49 -40 49
-209 12 -48 -10 -96 -19 -105 -18 -34 2 72 31 177 48 58 9 104 20 103 24 -2 4
-3 17 -3 28 0 22 -1 22 -182 16 -154 -4 -489 -36 -578 -53 -22 -5 -18 -9 35
-38 146 -80 310 -179 347 -209 30 -24 36 -33 23 -37 -11 -4 21 -31 102 -86 65
-44 253 -181 418 -305 164 -123 305 -228 312 -232 18 -11 30 -3 215 133 290
214 501 366 592 426 77 51 86 59 65 64 -22 5 -21 8 21 37 70 48 258 162 334
204 l69 37 -34 6 c-206 34 -440 56 -596 56 -129 0 -143 -4 -143 -36 0 -20 5
-24 30 -24 36 0 260 -47 269 -56 8 -8 -82 3 -172 22 -108 22 -130 19 -161 -20
-40 -53 -82 -74 -176 -85 -147 -19 -243 -11 -208 16 7 5 28 15 46 23 43 17 89
71 102 121 21 76 -14 161 -85 205 -68 44 -71 61 -85 479 -8 268 -42 679 -58
719 -5 12 -16 -53 -30 -175z m89 -1029 c45 -13 89 -55 89 -86 0 -28 0 -27 -37
-13 -83 31 -163 30 -245 -6 -29 -12 -22 38 8 69 43 42 114 56 185 36z m68
-241 c-20 -13 -29 -11 -29 5 0 16 33 27 39 13 2 -5 -3 -13 -10 -18z m-240 12
c7 -5 10 -14 6 -20 -5 -9 -10 -9 -21 0 -26 22 -14 38 15 20z m-4 -192 c129
-13 299 -6 370 16 28 8 52 15 54 15 14 0 -81 -65 -128 -87 -51 -26 -65 -28
-173 -28 l-117 0 -106 54 c-58 30 -108 58 -111 62 -2 4 20 1 48 -7 29 -7 103
-19 163 -25z"/>
<path d="M1590 2335 c0 -8 7 -31 14 -50 8 -19 13 -35 10 -35 -3 0 -25 11 -48
25 -36 21 -147 65 -165 65 -3 0 15 -21 41 -47 86 -91 168 -207 154 -221 -4 -3
-19 6 -34 20 -67 63 -201 106 -359 115 -110 6 -133 -4 -60 -26 47 -14 159 -80
164 -97 2 -6 -71 -38 -169 -74 -348 -127 -458 -173 -458 -191 0 -4 17 -10 38
-14 137 -25 427 -159 662 -304 63 -39 120 -71 127 -71 7 0 37 34 68 76 31 41
92 111 137 155 l80 80 -11 62 c-24 122 -72 323 -93 387 -28 87 -98 190 -98
145z m-98 -354 c38 -33 73 -98 83 -152 14 -77 -58 -150 -153 -156 -68 -5 -106
15 -152 78 -25 35 -30 52 -30 97 0 49 3 58 34 87 44 42 112 75 153 75 21 0 44
-10 65 -29z"/>
<path d="M1319 1941 c-25 -26 -29 -37 -29 -85 0 -47 4 -60 30 -90 58 -66 143
-70 206 -11 40 38 45 79 16 135 -26 52 -74 80 -139 80 -47 0 -59 -4 -84 -29z
m101 -36 c18 -21 5 -45 -24 -45 -25 0 -44 30 -31 50 9 15 41 12 55 -5z"/>
<path d="M2195 2318 c-28 -41 -130 -408 -149 -539 -7 -45 -6 -48 26 -67 47
-30 116 -104 187 -202 34 -47 65 -85 69 -85 4 0 46 26 93 57 130 85 455 245
606 298 l134 47 -88 40 c-48 22 -158 66 -243 97 -244 91 -292 110 -293 121 -1
6 44 33 101 62 l104 51 -54 7 c-63 8 -210 -15 -290 -45 -30 -11 -78 -35 -108
-54 -30 -19 -56 -33 -58 -31 -15 15 36 84 150 202 l61 63 -109 -39 c-60 -21
-117 -41 -126 -45 -15 -7 -15 -4 -3 38 16 51 14 56 -10 24z m300 -339 c63 -39
86 -70 93 -125 7 -62 -28 -128 -86 -165 -58 -36 -84 -36 -148 1 -80 45 -97 73
-91 144 6 64 36 112 97 154 44 30 74 28 135 -9z"/>
<path d="M2343 1950 c-58 -35 -85 -117 -54 -164 29 -44 70 -66 124 -66 40 0
53 5 85 34 35 33 37 38 37 96 0 57 -2 64 -33 91 -40 36 -109 40 -159 9z m107
-50 c0 -40 -61 -54 -68 -16 -3 11 3 25 12 32 22 16 56 6 56 -16z"/>
</g>
</svg>
